# xmcd
#
# Track frame offsets:
# 150
# 16465
# 34477
# 47972
# 68737
# 85480
# 101032
# 114012
# 128187
# 149150
# 163487
# 178157
# 193950
#
# Disc length: 2782 seconds
#
#
# Revision: 0
# Processed by: cddbd v1.5.2PL0 Copyright (c) Steve Scherf et al.
# Submitted via: FreeRIP 2.951 
#
DISCID=cb0adc0d
DTITLE=Gilnei Bertussi e Os Bertussi - Vida Tropeira
DYEAR=1900
DGENRE=gaucha
TTITLE0=Vida Tropeira
TTITLE1=Sonho Antigo
TTITLE2=Maricota Magricela
TTITLE3=Baile da Bagunça
TTITLE4=Luzeiro
TTITLE5=A volta do Tropeiro
TTITLE6=Contigo nas Núvens
TTITLE7=A Saudade e a Tristeza
TTITLE8=Fole Furado
TTITLE9=Sangue de um Campeiro
TTITLE10=Flor de Morena
TTITLE11=Coração do meu Pago
TTITLE12=Coração do meu Pago
EXTD=
EXTT0=
EXTT1=
EXTT2=
EXTT3=
EXTT4=
EXTT5=
EXTT6=
EXTT7=
EXTT8=
EXTT9=
EXTT10=
EXTT11=
EXTT12=
PLAYORDER=
